<svg width="60" height="47" viewBox="0 0 60 47" fill="none" xmlns="http://www.w3.org/2000/svg">
<g clip-path="url(#clip0_247_31)">
<g style="mix-blend-mode:multiply">
<path d="M59.3998 32.0633C62.9045 35.2123 50.476 39.4955 38.5876 44.2371C32.8205 46.5355 31.1581 48.2789 25.427 45.7573C15.495 41.3837 -0.000109932 36.1534 -0.000109932 35.2123C-0.000109932 33.9696 -0.234157 34.7297 10.9401 34.7297C22.1143 34.7297 58.4756 31.2368 59.3998 32.0633Z" fill="#B3B3B3"/>
</g>
<path d="M24.7489 44.5991C26.4292 45.0696 29.3278 45.9564 29.8079 46.0227C31.8063 46.3002 36.9073 44.0199 40.658 42.6626C47.1093 40.328 53.4706 37.7822 58.5176 35.4597C58.7937 35.333 59.0397 35.1641 59.1657 34.959C59.2618 34.8021 59.3218 34.6211 59.2738 34.4522C59.1117 33.8731 59.4358 32.8536 59.3938 32.3468C59.3818 32.2141 59.3698 32.0693 59.2618 31.9608C59.1537 31.8522 58.9737 31.7858 58.8057 31.7255C56.8193 31.0378 44.8409 26.7727 42.0143 25.8437C39.1097 24.8905 35.1909 24.9448 31.7583 25.1077C30.0479 25.1861 28.3916 25.5119 26.7293 25.8377C18.6216 27.4303 11.2402 29.1013 1.99231 30.9231C0.582027 31.3273 1.34418 33.8128 1.33218 34.6996C1.33218 34.9831 0.972105 35.4898 1.52422 35.8035C2.4604 36.3344 4.87889 37.0643 5.18495 37.2212C7.66944 38.1985 9.9619 39.2662 14.3008 40.6899C18.5016 42.0654 23.0505 44.1164 24.7549 44.593L24.7489 44.5991Z" fill="#C7893E"/>
<g style="mix-blend-mode:multiply">
<path d="M1.63835 33.1612C1.47632 34.2109 2.3885 35.882 2.56254 35.9423C4.00883 36.4611 5.19706 36.9618 6.13325 37.378C8.01163 37.9511 9.40991 38.5966 11.6424 39.399C12.6386 39.7549 14.667 40.4366 15.5971 40.8589C16.3053 41.1786 18.1537 41.6612 18.8618 41.9628C19.714 42.3187 21.4723 42.9099 22.3605 43.1814C24.995 43.9837 25.3191 44.5568 28.0376 44.9369C28.1877 44.955 29.946 45.884 30.2821 45.2807C30.5041 45.1179 30.2521 44.9248 30.3841 44.5086C30.5161 44.0923 30.8222 42.2644 30.3361 41.9689C29.748 41.6129 28.7098 41.7034 27.9056 41.45C26.9274 41.1424 26.5133 40.9131 25.097 40.5331C22.9906 39.966 21.6584 39.4714 19.4859 38.9405C18.5497 38.7112 17.4455 38.1743 16.5273 37.8606C15.6752 37.5711 13.8148 36.9859 12.9806 36.636C10.9462 35.7734 9.76998 35.2485 7.67556 34.3919C6.61935 33.9576 6.01323 33.8972 4.61495 33.1432C3.61275 32.6002 2.77258 31.6893 1.78238 31.9004C1.32629 32.2986 1.73437 32.6002 1.64435 33.1552L1.63835 33.1612Z" fill="#CCCCCC"/>
</g>
<path d="M31.7284 25.3249C37.0815 25.4214 49.612 27.7982 51.2023 28.2507C52.2645 28.5523 53.2667 29.3426 54.0049 29.9579C54.785 30.6094 55.5952 31.4661 53.6748 32.4072C51.6584 33.3965 49.2699 33.6438 47.0975 34.3677C42.9867 35.7371 37.7116 37.2755 33.6968 38.494C29.754 39.6885 30.8642 39.6161 27.6236 39.0973C24.1189 38.5302 16.4914 35.9121 7.78362 32.558C7.27951 32.2563 6.09128 31.7677 5.76121 31.3454C5.13709 30.5551 6.03126 29.9459 6.7154 29.1556C7.40554 28.3653 7.63959 27.9853 9.38594 27.5449C11.5164 27.008 24.749 25.1982 31.7284 25.3249Z" fill="#41180C"/>
<path d="M52.3964 32.9199C50.9321 33.7705 50.8961 34.229 50.9381 34.8926C50.9741 35.4838 51.1541 36.3283 50.602 37.0704C50.0439 37.8184 48.9337 38.301 48.2976 37.185C47.5114 35.8156 46.9413 34.971 42.7285 35.7854C39.2478 36.455 45.8011 34.0601 48.0215 33.1492C50.242 32.2443 52.9785 32.5761 52.3964 32.9139V32.9199Z" fill="#41180C"/>
<path d="M16.6833 16.9757C15.9332 16.9637 9.24182 16.5535 8.52767 16.3242C7.29143 15.9321 3.33063 15.908 2.47246 15.4254C1.61429 14.9428 1.83033 13.7905 1.6443 13.3984C1.29623 12.6624 0.828134 12.4151 2.56848 11.094C3.88275 10.0986 5.50307 8.95238 10.8801 6.00244C16.3472 2.9982 17.8895 1.40559 19.2998 1.24271C22.4865 0.880757 29.976 0.211138 30.7981 0.410214C31.7043 0.14478 37.1834 -0.0965245 38.4677 0.211138C39.0378 0.0663558 44.0788 -0.126687 45.8431 0.108584C48.9037 -0.15685 51.5983 0.277497 53.6687 0.271464C54.0768 0.271464 54.3228 1.44179 54.0468 2.17173C53.8907 2.58195 54.4549 3.34206 54.5629 3.87896C54.8449 5.27249 53.1106 5.88782 51.5863 6.8651C49.6779 8.08972 43.7007 10.6717 42.4885 11.2991C41.3602 11.8903 36.0372 15.0453 30.6541 16.4388C25.295 17.8263 18.9818 17.0119 16.6713 16.9757H16.6833Z" fill="#C7893E"/>
<path d="M17.1935 32.371C14.4749 31.5324 9.61394 30.6698 9.97402 19.5879C10.118 15.0574 10.7782 12.1859 12.0924 10.8467C14.5109 8.39139 19.852 5.64656 25.3371 5.01916C37.6335 3.60754 43.8988 4.24096 45.8252 6.72036C47.6075 9.00671 48.1416 12.2704 49.4079 14.9488C51.1062 18.5382 52.5585 27.8586 40.07 31.2308C35.2091 32.5459 24.3649 34.5789 17.1875 32.377L17.1935 32.371Z" fill="white"/>
<g style="mix-blend-mode:multiply">
<path d="M19.4856 3.07059C18.8854 1.96663 19.5096 1.52625 18.4653 2.21396C17.3431 2.85945 16.869 2.88961 16.0709 3.42652C14.7506 4.31934 14.2465 4.47619 12.6922 5.38711C11.1139 6.53331 10.0397 6.47298 8.2573 7.69157C6.64898 8.7895 5.80281 9.18765 5.33472 9.51944C3.58237 11.1603 3.60037 10.4002 2.47815 11.661C2.41814 11.7274 1.64398 11.9626 1.62598 12.59C1.62598 12.8374 1.78801 12.8494 1.92004 13.2416C2.05206 13.6397 2.41213 14.2731 2.70019 14.2369C3.06026 14.1947 3.2343 13.7483 3.62438 13.4949C4.11047 13.1812 4.92064 12.7771 5.61677 12.2582C6.67899 11.4619 6.87703 11.3594 8.04726 10.5209C8.56336 10.1468 9.31952 9.93569 9.88963 9.6401C10.4297 9.3626 11.522 8.56026 12.1161 8.33705C13.5984 7.76396 13.7424 7.44423 15.2607 6.73841C16.0469 6.37043 16.2029 5.99037 17.4091 5.65255C18.2973 5.40521 18.7714 4.84418 19.8876 4.20472C20.2957 3.81863 19.8036 3.66782 19.4856 3.07662V3.07059Z" fill="#CCCCCC"/>
</g>
<path d="M44.1387 12.1618C45.0029 12.5298 45.2909 13.8992 44.7448 14.5929C44.2887 15.172 43.4966 15.3892 42.8064 15.1841C42.2963 15.0333 41.8342 14.6894 41.6062 14.2129C41.3722 13.7303 41.4022 13.127 41.7202 12.6745C42.3143 11.842 43.4846 11.8782 44.1447 12.1557L44.1387 12.1618Z" fill="#00BAEC"/>
<path d="M22.2642 13.0666C22.8643 13.3019 23.1764 13.7302 23.3024 14.3274C23.4404 14.9669 23.0383 15.6848 22.4142 16.0105C21.8081 16.3242 21.0339 16.2639 20.5178 15.8899C20.0017 15.5159 19.7437 14.8402 19.8577 14.2007C20.0317 13.2114 21.316 12.6986 22.2582 13.0666H22.2642Z" fill="#00BAEC"/>
<path d="M31.32 17.9651C33.7865 18.0798 35.7849 17.754 38.4494 16.65C39.0135 16.4148 39.3916 16.5233 39.5236 16.6681C39.6197 16.7827 39.6977 17.1507 39.4456 17.4886C38.7255 18.4357 36.331 19.3406 35.1548 19.5939C32.3702 20.1912 28.4394 19.9438 25.8109 18.1521C25.4088 17.8807 25.3728 17.4644 25.4688 17.2895C25.5949 17.0542 25.9969 16.8793 26.5971 17.1025C27.9893 17.6152 29.7237 17.8867 31.32 17.9591V17.9651Z" fill="#00BAEC"/>
</g>
<defs>
<clipPath id="clip0_247_31">
<rect width="60" height="47" fill="white"/>
</clipPath>
</defs>
</svg>
