<svg width="73" height="73" viewBox="0 0 73 73" fill="none" xmlns="http://www.w3.org/2000/svg">
<path d="M72.421 55.0773C71.2264 65.0967 61.9886 72.804 51.8753 72.9134C41.6252 73.0229 31.3751 73.032 21.125 72.9134C9.83984 72.7766 0.237214 63.195 0.0958651 51.9168C-0.0363648 41.6694 -0.0226858 31.4174 0.0913054 21.1699C0.214416 9.78235 9.83984 0.200731 21.2572 0.082158C31.4298 -0.0227336 41.6069 -0.0272941 51.7795 0.082158C63.1877 0.205292 72.7539 9.80059 72.9363 21.1927C73.0184 26.3552 73.1415 49.0255 72.421 55.0773ZM7.34571 36.2698C7.34571 41.1267 7.31835 45.9882 7.35027 50.8451C7.4141 59.3733 13.6563 65.612 22.2102 65.6485C31.6988 65.685 41.192 65.6805 50.6806 65.6485C59.3804 65.6212 65.6226 59.4052 65.6545 50.7357C65.691 41.2453 65.691 31.7549 65.6545 22.2645C65.6226 13.5904 59.385 7.3744 50.6852 7.34704C41.1966 7.31512 31.7034 7.31056 22.2147 7.34704C13.6608 7.38353 7.4141 13.6177 7.35027 22.1459C7.31379 26.8523 7.34571 31.5588 7.34571 36.2652V36.2698Z" fill="#CCFFCC"/>
<path d="M55.2811 36.4977C55.2811 46.9869 46.9963 55.2733 36.5091 55.2733C26.0173 55.2733 17.7324 46.9914 17.7324 36.5023C17.7324 26.0131 26.0127 17.7267 36.5045 17.7267C46.9963 17.7267 55.2811 26.0086 55.2811 36.4977ZM36.5136 47.9628C42.8607 47.9628 47.9355 42.928 47.9675 36.6026C48.0039 30.1404 42.9382 25.0326 36.4954 25.0372C30.1484 25.0372 25.0735 30.072 25.0415 36.3974C25.0051 42.8596 30.0708 47.9674 36.5136 47.9628Z" fill="#CCFFCC"/>
<path d="M50.9814 17.8179C50.9677 15.2868 52.8919 13.2939 55.3677 13.2756C57.8573 13.2574 59.7997 15.2093 59.818 17.7449C59.8362 20.2806 57.912 22.2826 55.4361 22.3054C52.9785 22.3328 50.9905 20.3307 50.9768 17.8133L50.9814 17.8179Z" fill="#CCFFCC"/>
</svg>
