<svg width="30" height="36" viewBox="0 0 30 36" fill="none" xmlns="http://www.w3.org/2000/svg">
<path fill-rule="evenodd" clip-rule="evenodd" d="M0.585786 22.6863L13.3137 35.4142C14.0948 36.1953 15.3611 36.1953 16.1421 35.4142L28.8701 22.6863C29.6511 21.9052 29.6511 20.6389 28.8701 19.8579C28.089 19.0768 26.8227 19.0768 26.0416 19.8579L16.7279 29.1716L16.7279 2.00089C16.7279 2.00074 16.7279 2 14.7279 2C12.7279 2 12.7279 2.00007 12.7279 2.00022L12.7279 29.1716L3.41421 19.8579C2.63316 19.0768 1.36683 19.0768 0.585786 19.8579C-0.195263 20.6389 -0.195263 21.9052 0.585786 22.6863ZM14.7279 2L12.7279 2.00022C12.7279 0.895654 13.6234 5.95496e-07 14.7279 6.43778e-07C15.8325 6.9206e-07 16.7279 0.896322 16.7279 2.00089L14.7279 2Z" fill="#CCFFCC"/>
</svg>
