<svg width="36" height="30" viewBox="0 0 36 30" fill="none" xmlns="http://www.w3.org/2000/svg">
<path fill-rule="evenodd" clip-rule="evenodd" d="M13.3137 0.585789L0.585786 13.3137C-0.195262 14.0948 -0.195262 15.3611 0.585786 16.1421L13.3137 28.8701C14.0948 29.6511 15.3611 29.6511 16.1421 28.8701C16.9232 28.089 16.9232 26.8227 16.1421 26.0416L6.82843 16.7279L33.9991 16.7279C33.9993 16.7279 34 16.7279 34 14.7279C34 12.7279 33.9999 12.7279 33.9998 12.7279L6.82843 12.7279L16.1421 3.41422C16.9232 2.63317 16.9232 1.36684 16.1421 0.585788C15.3611 -0.19526 14.0948 -0.19526 13.3137 0.585789ZM34 14.7279L33.9998 12.7279C35.1043 12.7279 36 13.6234 36 14.7279C36 15.8325 35.1037 16.7279 33.9991 16.7279L34 14.7279Z" fill="#CCFFCC"/>
</svg>
