<svg width="36" height="30" viewBox="0 0 36 30" fill="none" xmlns="http://www.w3.org/2000/svg">
<path fill-rule="evenodd" clip-rule="evenodd" d="M22.6863 0.585789L35.4142 13.3137C36.1953 14.0948 36.1953 15.3611 35.4142 16.1421L22.6863 28.8701C21.9052 29.6511 20.6389 29.6511 19.8579 28.8701C19.0768 28.089 19.0768 26.8227 19.8579 26.0416L29.1716 16.7279L2.00089 16.7279C2.00089 16.7279 2 16.7279 2 14.7279C2 12.7279 2.00022 12.7279 2.00022 12.7279L29.1716 12.7279L19.8579 3.41422C19.0768 2.63317 19.0768 1.36684 19.8579 0.585788C20.6389 -0.19526 21.9052 -0.19526 22.6863 0.585789ZM2 14.7279L2.00022 12.7279C0.895652 12.7279 -1.19099e-06 13.6234 -1.28756e-06 14.7279C-1.38412e-06 15.8325 0.89632 16.7279 2.00089 16.7279L2 14.7279Z" fill="#CCFFCC"/>
</svg>
