<svg width="30" height="36" viewBox="0 0 30 36" fill="none" xmlns="http://www.w3.org/2000/svg">
<path fill-rule="evenodd" clip-rule="evenodd" d="M28.8703 13.3137L16.1423 0.585785C15.3613 -0.195263 14.095 -0.195263 13.3139 0.585785L0.585997 13.3137C-0.195053 14.0948 -0.195053 15.3611 0.585997 16.1421C1.36705 16.9232 2.63338 16.9232 3.41443 16.1421L12.7281 6.82843L12.7281 33.9991C12.7281 33.9993 12.7281 34 14.7281 34C16.7281 34 16.7281 33.9999 16.7281 33.9998L16.7281 6.82843L26.0418 16.1421C26.8229 16.9232 28.0892 16.9232 28.8703 16.1421C29.6513 15.3611 29.6513 14.0948 28.8703 13.3137ZM14.7281 34L16.7281 33.9998C16.7281 35.1043 15.8327 36 14.7281 36C13.6236 36 12.7281 35.1037 12.7281 33.9991L14.7281 34Z" fill="#CCFFCC"/>
</svg>
