<svg width="100" height="100" viewBox="0 0 100 100" fill="none" xmlns="http://www.w3.org/2000/svg">
<g clip-path="url(#clip0_1143_200)">
<path d="M80.8977 50.2622L80.5969 50.9067C80.0461 49.9965 79.2766 48.6215 78.4133 47.0747C75.9797 42.7114 72.6438 36.7347 69.1867 32.0747L69.1164 31.9849C65.6828 27.7349 61.8664 25.6685 57.4524 25.6685C56.011 25.6685 54.5032 25.8989 52.9641 26.352C47.7375 27.8911 46.9329 31.1958 46.8274 32.5395C46.6243 35.1333 48.6204 40.0083 53.9563 42.5317L53.9602 46.3989C56.6125 45.688 59.8625 44.2622 60.1243 42.1372C60.3391 40.3794 59.4329 38.688 57.8313 37.9263C53.0735 35.6685 52.2024 33.6841 52.2766 32.9654C52.6125 29.7584 59.3469 28.6138 64.8276 35.3795C68.062 39.7545 71.2807 45.5245 73.6362 49.7425C74.3979 51.1058 75.0581 52.2894 75.605 53.223L59.964 86.973C58.4249 86.5551 57.0773 86.3676 55.714 86.3676C54.8663 86.3676 54.089 86.4379 53.3312 86.5082C52.4992 86.5824 51.6398 86.6605 50.5382 86.6605C49.8038 86.6605 49.0421 86.6254 48.2023 86.559C43.2179 86.1527 35.2253 82.2621 31.5693 80.1957C29.7646 78.8676 29.5966 78.0082 29.9287 76.2465H24.4053C24.1006 78.852 24.5498 81.8793 28.4873 84.7153L28.6045 84.8012L28.7295 84.8715C29.9014 85.5395 40.3815 91.4027 47.7525 92.0043C48.7408 92.0864 49.6509 92.1254 50.5377 92.1254C51.8854 92.1254 52.9166 92.0317 53.8307 91.9496C54.5182 91.8871 55.1159 91.8324 55.7174 91.8324C56.7096 91.8324 57.9674 91.9574 60.4518 92.8676L60.987 93.0786L60.7057 93.6801L74.2997 100L94.4877 56.5824L80.8977 50.2622Z" fill="black"/>
<path d="M51.4221 65.7501V45.0741L49.9533 44.0429C48.3752 43.1093 47.0588 41.9687 46.0002 40.7265V59.7775H10.9262V13.7815H46.0002V26.5865C47.1135 25.6529 48.6135 24.8092 50.6408 24.2115C50.9025 24.1334 51.1603 24.0631 51.422 24.0006V7.80958C51.422 3.49708 47.9259 0.000976562 43.6134 0.000976562H13.3164C9.00391 0.000976562 5.50781 3.49708 5.50781 7.80958V65.7506C5.50781 70.0631 9.00391 73.5592 13.3164 73.5592H43.6134C47.9259 73.5592 51.422 70.0631 51.422 65.7506L51.4221 65.7501ZM40.8521 7.20312C41.7778 7.20312 42.5279 7.95312 42.5279 8.87892C42.5279 9.8047 41.7779 10.5547 40.8521 10.5547C39.9263 10.5547 39.1763 9.80472 39.1763 8.87892C39.1802 7.95314 39.9302 7.20312 40.8521 7.20312ZM21.2191 7.51562H35.7151V10.25H21.2191V7.51562ZM28.4652 67.5466C26.8558 67.5466 25.5472 66.2419 25.5472 64.6286C25.5472 63.0192 26.8519 61.7106 28.4652 61.7106C30.0746 61.7106 31.3832 63.0153 31.3832 64.6286C31.3832 66.238 30.0746 67.5466 28.4652 67.5466Z" fill="black"/>
<path d="M47.9429 57.4179C45.9955 47.9266 37.618 41 28.0006 41C18.3831 41 10.0058 47.9266 8.05819 57.4179C7.88073 58.3134 8.11811 59.209 8.64818 59.9249C9.23818 60.6408 10.0632 61 10.9482 61H45.0504C45.9354 61 46.7605 60.5826 47.3505 59.9249C47.8828 59.209 48.1179 58.3134 47.9428 57.4179H47.9429Z" fill="black"/>
<path d="M17 29C17 35.6011 22.1742 41 28.5 41C34.8258 41 40 35.6009 40 29C40 22.3989 34.8258 17 28.5 17C22.1742 17 17 22.4013 17 29Z" fill="black"/>
</g>
<defs>
<clipPath id="clip0_1143_200">
<rect width="100" height="100" fill="white"/>
</clipPath>
</defs>
</svg>
